# xmcd CD database file
#
# Track frame offsets:
#	150
#	21485
#	39084
#	53117
#	83708
#	99612
#	122289
#
# Disc length: 2210 seconds
#
# Revision: 0
# Processed by: cddbd v1.5.1PL0 Copyright (c) Steve Scherf et al.
# Submitted via: CDex 1.51
#
DISCID=4a08a007
DTITLE=Jimmy Smith - Stay Loose...Jimmy Smith Sings Again
DYEAR=1968
DGENRE=Jazz
TTITLE0=I'm Gonna More To The Outskirts Of Town
TTITLE1=Stay Loose
TTITLE2=If You Ain't Got It
TTITLE3=One For Members
TTITLE4=Is You Is,Or Is You Ain't My Baby?
TTITLE5=Chain Of Fools
TTITLE6=Grabbin Hold
EXTD=YEAR: 1968
EXTT0=
EXTT1=
EXTT2=
EXTT3=
EXTT4=
EXTT5=
EXTT6=
PLAYORDER=
